<?xml version="1.0" encoding="UTF-8" standalone="no"?><!DOCTYPE svg PUBLIC "-//W3C//DTD SVG 1.1//EN" "http://www.w3.org/Graphics/SVG/1.1/DTD/svg11.dtd"><svg width="100%" height="100%" viewBox="0 0 284 284" version="1.1" xmlns="http://www.w3.org/2000/svg" xmlns:xlink="http://www.w3.org/1999/xlink" xml:space="preserve" xmlns:serif="http://www.serif.com/" style="fill-rule:evenodd;clip-rule:evenodd;stroke-linecap:round;stroke-linejoin:round;stroke-miterlimit:1.5;"><rect id="Artist" x="0" y="0" width="283.465" height="283.465" style="fill:none;"/><path d="M171.825,177.771c-8.174,8.87 -18.662,14.203 -30.093,14.203c-11.306,0 -21.69,-5.217 -29.825,-13.914c-10.624,-11.357 -17.413,-28.649 -17.413,-48.002c0,-20.5 7.617,-38.686 19.342,-49.957c7.819,-7.517 17.465,1.685 27.897,1.685c13.19,0 25.125,-6.542 33.698,4.9c8.373,11.174 13.54,26.489 13.54,43.372c0,19.19 -6.675,36.353 -17.145,47.713Z" style="fill:none;stroke:#000;stroke-width:12.71px;"/><path d="M96.419,112.202c0,0 1.667,-4.664 -5.371,-27.261c-3.979,-12.777 5.863,-24.848 13.531,-25.901c16.521,-2.269 19.174,-5.062 33.184,-21.514c6.794,-7.978 25.802,7.604 34.741,-0.113c15.573,-13.446 34.091,-6.52 36.72,7.629c1.089,5.862 -5.719,15.422 -1.075,25.825c5.424,12.148 -22.232,28.392 -21.171,40.347" style="fill:none;stroke:#000;stroke-width:12.71px;"/><path d="M171.825,177.825c-1.478,3.747 -4.365,12.664 -1.91,20.143c32.055,7.73 54.998,28.264 54.998,52.354l-166.361,0c0,-23.733 22.267,-44.015 53.578,-52.002c2.767,-7.497 0.526,-17.33 -0.223,-20.156" style="fill:none;stroke:#000;stroke-width:12.71px;"/></svg>