<?xml version="1.0" encoding="UTF-8" standalone="no"?><!DOCTYPE svg PUBLIC "-//W3C//DTD SVG 1.1//EN" "http://www.w3.org/Graphics/SVG/1.1/DTD/svg11.dtd"><svg width="100%" height="100%" viewBox="0 0 284 284" version="1.1" xmlns="http://www.w3.org/2000/svg" xmlns:xlink="http://www.w3.org/1999/xlink" xml:space="preserve" xmlns:serif="http://www.serif.com/" style="fill-rule:evenodd;clip-rule:evenodd;stroke-linejoin:round;stroke-miterlimit:2;"><rect id="Genre" x="0" y="0" width="283.465" height="283.465" style="fill:none;"/><path d="M219.015,107.168l-4.663,-1.485c-25.606,-8.155 -52.738,2.564 -66.341,24.375c-3.941,-13.486 -4.049,-28.247 0.531,-42.629c12.249,-38.463 53.422,-59.746 91.885,-47.497c18.554,5.909 28.82,25.77 22.912,44.324c-5.909,18.554 -25.77,28.82 -44.324,22.912Zm3.856,-12.108c11.871,3.781 24.579,-2.788 28.36,-14.659c3.781,-11.871 -2.788,-24.579 -14.659,-28.36c-31.781,-10.121 -65.8,7.464 -75.921,39.244c-1.112,3.491 -1.89,7.01 -2.351,10.521c17.102,-11.211 38.924,-14.914 59.909,-8.231l4.663,1.485Z"/><path d="M143.479,163.607c4.973,-18.827 24.295,-30.074 43.122,-25.101c18.827,4.973 30.074,24.295 25.101,43.122c-10.309,39.028 -50.365,62.344 -89.393,52.035c-14.593,-3.855 -26.99,-11.869 -36.253,-22.432c25.705,0.229 49.311,-16.91 56.174,-42.892l1.25,-4.731Zm12.286,3.245l-1.25,4.731c-5.624,21.292 -20.461,37.718 -39.1,46.13c3.21,1.495 6.596,2.728 10.139,3.663c32.247,8.518 65.344,-10.747 73.862,-42.994c3.182,-12.046 -4.014,-24.409 -16.06,-27.59c-12.046,-3.182 -24.409,4.014 -27.59,16.06Z"/><path d="M61.383,133.267c-18.233,-6.835 -27.488,-27.187 -20.653,-45.42c6.835,-18.233 27.187,-27.488 45.42,-20.653c37.799,14.168 56.984,56.359 42.815,94.158c-5.298,14.134 -14.513,25.665 -25.952,33.823c2.804,-25.552 -11.883,-50.757 -37.047,-60.189l-4.582,-1.718Zm4.46,-11.899l4.582,1.718c20.622,7.73 35.477,24.138 41.979,43.526c1.809,-3.044 3.375,-6.289 4.661,-9.721c11.707,-31.231 -4.145,-66.092 -35.376,-77.798c-11.666,-4.373 -24.688,1.548 -29.061,13.215c-4.373,11.666 1.548,24.688 13.215,29.061Z"/></svg>