<?xml version="1.0" encoding="UTF-8" standalone="no"?><!DOCTYPE svg PUBLIC "-//W3C//DTD SVG 1.1//EN" "http://www.w3.org/Graphics/SVG/1.1/DTD/svg11.dtd"><svg width="100%" height="100%" viewBox="0 0 284 284" version="1.1" xmlns="http://www.w3.org/2000/svg" xmlns:xlink="http://www.w3.org/1999/xlink" xml:space="preserve" xmlns:serif="http://www.serif.com/" style="fill-rule:evenodd;clip-rule:evenodd;stroke-linecap:round;stroke-linejoin:round;stroke-miterlimit:1.5;"><rect id="Playlist" x="0" y="0" width="283.465" height="283.465" style="fill:none;"/><rect x="49.601" y="36.764" width="151.503" height="195.537" style="fill:none;stroke:#000;stroke-width:12.71px;"/><path d="M201.104,61.41l29.575,0l0,195.537l-151.503,0l0,-24.646" style="fill:none;stroke:#000;stroke-width:12.71px;"/><path d="M99.552,76.276l74.608,0" style="fill:none;stroke:#000;stroke-width:12.71px;"/><path d="M76.839,76.276l-0.421,0" style="fill:none;stroke:#000;stroke-width:12.71px;"/><path d="M99.552,105.404l74.608,0" style="fill:none;stroke:#000;stroke-width:12.71px;"/><path d="M76.839,105.404l-0.421,0" style="fill:none;stroke:#000;stroke-width:12.71px;"/><path d="M99.552,134.532l74.608,0" style="fill:none;stroke:#000;stroke-width:12.71px;"/><path d="M76.839,134.532l-0.421,0" style="fill:none;stroke:#000;stroke-width:12.71px;"/><path d="M99.552,163.661l74.608,0" style="fill:none;stroke:#000;stroke-width:12.71px;"/><path d="M76.839,163.661l-0.421,0" style="fill:none;stroke:#000;stroke-width:12.71px;"/><path d="M99.552,192.789l74.608,0" style="fill:none;stroke:#000;stroke-width:12.71px;"/><path d="M76.839,192.789l-0.421,0" style="fill:none;stroke:#000;stroke-width:12.71px;"/></svg>