<?xml version="1.0" encoding="UTF-8" standalone="no"?><!DOCTYPE svg PUBLIC "-//W3C//DTD SVG 1.1//EN" "http://www.w3.org/Graphics/SVG/1.1/DTD/svg11.dtd"><svg width="100%" height="100%" viewBox="0 0 284 284" version="1.1" xmlns="http://www.w3.org/2000/svg" xmlns:xlink="http://www.w3.org/1999/xlink" xml:space="preserve" xmlns:serif="http://www.serif.com/" style="fill-rule:evenodd;clip-rule:evenodd;stroke-linecap:round;stroke-linejoin:round;stroke-miterlimit:1.5;"><rect id="Radio" x="0" y="0" width="283.465" height="283.465" style="fill:none;"/><path d="M199.605,53.032l20.539,147.799c2.865,20.617 -11.547,39.682 -32.165,42.547l-74.711,10.382c-20.617,2.865 -39.682,-11.547 -42.547,-32.165l-20.539,-147.799c-2.865,-20.617 11.547,-39.682 32.165,-42.547l74.711,-10.382c20.617,-2.865 39.682,11.547 42.547,32.165Z" style="fill:none;stroke:#000;stroke-width:12.71px;"/><path d="M202.858,76.446l-75.376,10.474" style="fill:none;stroke:#000;stroke-width:12.71px;"/><path d="M92.824,91.737l-39.388,5.474" style="fill:none;stroke:#000;stroke-width:12.71px;"/><path d="M206.11,99.846l-75.376,10.474" style="fill:none;stroke:#000;stroke-width:12.71px;"/><path d="M96.076,115.137l-39.388,5.474" style="fill:none;stroke:#000;stroke-width:12.71px;"/><path d="M209.603,124.98l-75.376,10.474" style="fill:none;stroke:#000;stroke-width:12.71px;"/><path d="M99.568,140.271l-39.388,5.474" style="fill:none;stroke:#000;stroke-width:12.71px;"/><path d="M213.156,150.546l-75.376,10.474" style="fill:none;stroke:#000;stroke-width:12.71px;"/><path d="M103.121,165.837l-39.388,5.474" style="fill:none;stroke:#000;stroke-width:12.71px;"/><path d="M216.407,173.946l-75.376,10.474" style="fill:none;stroke:#000;stroke-width:12.71px;"/><path d="M106.373,189.237l-39.388,5.474" style="fill:none;stroke:#000;stroke-width:12.71px;"/></svg>