<?xml version="1.0" encoding="UTF-8" standalone="no"?><!DOCTYPE svg PUBLIC "-//W3C//DTD SVG 1.1//EN" "http://www.w3.org/Graphics/SVG/1.1/DTD/svg11.dtd"><svg width="100%" height="100%" viewBox="0 0 284 284" version="1.1" xmlns="http://www.w3.org/2000/svg" xmlns:xlink="http://www.w3.org/1999/xlink" xml:space="preserve" xmlns:serif="http://www.serif.com/" style="fill-rule:evenodd;clip-rule:evenodd;stroke-linecap:round;stroke-linejoin:round;stroke-miterlimit:1.5;"><rect id="History" x="-0" y="0" width="283.465" height="283.465" style="fill:none;"/><path d="M63.601,200.899l0,-167.421l151.503,0l0,184.712" style="fill:none;stroke:#000;stroke-width:12.71px;"/><path d="M51.278,241.975c-6.801,0 -12.323,-9.203 -12.323,-20.538c0,-11.335 5.522,-20.538 12.323,-20.538" style="fill:none;stroke:#000;stroke-width:12.71px;"/><path d="M51.278,241.975l151.648,0" style="fill:none;stroke:#000;stroke-width:12.71px;"/><path d="M51.278,200.899l151.648,0" style="fill:none;stroke:#000;stroke-width:12.71px;"/><ellipse cx="202.927" cy="221.437" rx="12.323" ry="20.538" style="fill:none;stroke:#000;stroke-width:12.71px;"/><path d="M113.553,72.99l74.608,0" style="fill:none;stroke:#000;stroke-width:12.71px;"/><path d="M90.839,72.99l-0.421,0" style="fill:none;stroke:#000;stroke-width:12.71px;"/><path d="M113.553,104.518l74.608,0" style="fill:none;stroke:#000;stroke-width:12.71px;"/><path d="M90.839,104.518l-0.421,0" style="fill:none;stroke:#000;stroke-width:12.71px;"/><path d="M113.553,136.046l74.608,0" style="fill:none;stroke:#000;stroke-width:12.71px;"/><path d="M90.839,136.046l-0.421,0" style="fill:none;stroke:#000;stroke-width:12.71px;"/><path d="M113.553,167.574l74.608,0" style="fill:none;stroke:#000;stroke-width:12.71px;"/><path d="M90.839,167.574l-0.421,0" style="fill:none;stroke:#000;stroke-width:12.71px;"/></svg>