<?xml version="1.0" encoding="UTF-8" standalone="no"?><!DOCTYPE svg PUBLIC "-//W3C//DTD SVG 1.1//EN" "http://www.w3.org/Graphics/SVG/1.1/DTD/svg11.dtd"><svg width="100%" height="100%" viewBox="0 0 284 284" version="1.1" xmlns="http://www.w3.org/2000/svg" xmlns:xlink="http://www.w3.org/1999/xlink" xml:space="preserve" xmlns:serif="http://www.serif.com/" style="fill-rule:evenodd;clip-rule:evenodd;stroke-linecap:round;stroke-linejoin:round;stroke-miterlimit:1.5;"><rect id="Radio" x="0" y="0" width="283.465" height="283.465" style="fill:none;"/><g><path d="M219.045,62.152l20.539,147.799c2.865,20.617 -11.547,39.682 -32.165,42.547l-74.711,10.382c-20.617,2.865 -39.682,-11.547 -42.547,-32.165l-20.539,-147.799c-2.865,-20.617 11.547,-39.682 32.165,-42.547l74.711,-10.382c20.617,-2.865 39.682,11.547 42.547,32.165Z" style="fill:none;stroke:#000;stroke-width:12.71px;"/><path d="M222.298,85.566l-75.376,10.474" style="fill:none;stroke:#000;stroke-width:12.71px;"/><path d="M112.264,100.857l-39.388,5.474" style="fill:none;stroke:#000;stroke-width:12.71px;"/><path d="M225.55,108.966l-75.376,10.474" style="fill:none;stroke:#000;stroke-width:12.71px;"/><path d="M115.516,124.257l-39.388,5.474" style="fill:none;stroke:#000;stroke-width:12.71px;"/><path d="M229.043,134.1l-75.376,10.474" style="fill:none;stroke:#000;stroke-width:12.71px;"/><path d="M119.008,149.391l-39.388,5.474" style="fill:none;stroke:#000;stroke-width:12.71px;"/><path d="M232.596,159.666l-75.376,10.474" style="fill:none;stroke:#000;stroke-width:12.71px;"/><path d="M122.561,174.957l-39.388,5.474" style="fill:none;stroke:#000;stroke-width:12.71px;"/><path d="M235.847,183.066l-75.376,10.474" style="fill:none;stroke:#000;stroke-width:12.71px;"/><path d="M125.813,198.357l-39.388,5.474" style="fill:none;stroke:#000;stroke-width:12.71px;"/></g><path d="M81.545,168.549c-9.35,13.205 -27.663,16.335 -40.868,6.985c-13.205,-9.35 -16.335,-27.663 -6.985,-40.868c9.35,-13.205 27.663,-16.335 40.868,-6.985" style="fill:none;stroke:#000;stroke-width:12.71px;"/><rect x="44.55" y="180.922" width="24.953" height="87.258" style="fill:none;stroke:#000;stroke-width:12.71px;"/></svg>